# xmcd
#
# Track frame offsets:
# 150
# 23175
# 35035
# 43287
# 57457
# 68907
# 84200
# 97375
# 106940
# 119004
# 130362
# 150480
# 167022
# 180137
# 195334
# 210192
# 225372
# 240807
# 256435
# 274707
#
# Disc length: 3854 seconds
#
#
# Revision: 1
# Processed by: cddbd v1.5.2PL0 Copyright (c) Steve Scherf et al.
# Submitted via: FreeRIP 2.60 
#
DISCID=070f0c14
DTITLE=특선한국가곡 - 특선한국가곡2
DYEAR=0001
DGENRE=Vocal
TTITLE0=그리운 금강산
TTITLE1=꽃구름 속에
TTITLE2=산노을
TTITLE3=그네
TTITLE4=봄이오면
TTITLE5=사월의 노래
TTITLE6=산들바람
TTITLE7=코스모스를 노래함
TTITLE8=봄처녀
TTITLE9=성불사의 밤
TTITLE10=가고파
TTITLE11=이별의 노래
TTITLE12=동무생각
TTITLE13=옛동산에 올라
TTITLE14=국화 옆에서
TTITLE15=수선화
TTITLE16=고향생각
TTITLE17=그리움
TTITLE18=청산에 살리라
TTITLE19=그리운 마음
EXTD=
EXTT0=
EXTT1=
EXTT2=
EXTT3=
EXTT4=
EXTT5=
EXTT6=
EXTT7=
EXTT8=
EXTT9=
EXTT10=
EXTT11=
EXTT12=
EXTT13=
EXTT14=
EXTT15=
EXTT16=
EXTT17=
EXTT18=
EXTT19=
PLAYORDER=
